<?xml version="1.0" standalone="no"?><!DOCTYPE svg PUBLIC "-//W3C//DTD SVG 1.1//EN" "http://www.w3.org/Graphics/SVG/1.1/DTD/svg11.dtd"><svg t="1713776192371" class="icon" viewBox="0 0 1024 1024" version="1.1" xmlns="http://www.w3.org/2000/svg" p-id="8064" xmlns:xlink="http://www.w3.org/1999/xlink" width="200" height="200"><path d="M512 427.93c-23.27 0-41.89 18.91-41.89 41.89v210.04l0.29 4.07c2.33 21.53 20.36 37.82 41.89 37.82 22.98 0 41.89-18.62 41.89-41.89V469.82l-0.29-4.07c-2.04-21.53-20.36-37.82-41.89-37.82z" p-id="8065"></path><path d="M512 64C264.73 64 64 264.44 64 512s200.44 448 448 448 448-200.44 448-448S759.27 64 512 64z m0 811.93c-201.02 0-363.93-162.91-363.93-363.93S310.98 148.07 512 148.07 875.93 310.98 875.93 512 713.02 875.93 512 875.93z" p-id="8066"></path><path d="M494.056854 352.600961a41.89 41.89 0 1 0 35.897875-75.69961 41.89 41.89 0 1 0-35.897875 75.69961Z" p-id="8067"></path></svg>