<?xml version="1.0" standalone="no"?><!DOCTYPE svg PUBLIC "-//W3C//DTD SVG 1.1//EN" "http://www.w3.org/Graphics/SVG/1.1/DTD/svg11.dtd"><svg t="1713773667655" class="icon" viewBox="0 0 1024 1024" version="1.1" xmlns="http://www.w3.org/2000/svg" p-id="1618" xmlns:xlink="http://www.w3.org/1999/xlink" width="200" height="200"><path d="M748.307692 196.923077a78.769231 78.769231 0 0 1 78.769231 78.769231v330.318769a78.769231 78.769231 0 0 1-78.769231 78.769231h-102.124307l-204.169847 124.100923a19.692308 19.692308 0 0 1-29.932307-16.817231v-107.283692H275.692308a78.769231 78.769231 0 0 1-78.769231-78.769231V275.692308a78.769231 78.769231 0 0 1 78.769231-78.769231h472.615384z m0 39.384615H275.692308a39.384615 39.384615 0 0 0-39.108923 34.776616L236.307692 275.692308v330.318769a39.384615 39.384615 0 0 0 34.776616 39.108923l4.608 0.275692h136.388923a39.384615 39.384615 0 0 1 39.108923 34.776616l0.275692 4.608-0.039384 72.270769 174.316307-105.944615a39.384615 39.384615 0 0 1 15.084308-5.356308l5.356308-0.354462H748.307692a39.384615 39.384615 0 0 0 39.108923-34.776615l0.275693-4.608V275.692308a39.384615 39.384615 0 0 0-34.776616-39.108923L748.307692 236.307692z m-137.846154 98.461539a19.692308 19.692308 0 0 1 3.544616 39.069538l-3.544616 0.315077h-78.76923V551.384615a19.692308 19.692308 0 0 1-39.069539 3.544616L492.307692 551.384615V374.153846h-78.76923a19.692308 19.692308 0 0 1-3.544616-39.069538l3.544616-0.315077h196.923076z" p-id="1619"></path></svg>